<?xml version="1.0" standalone="no"?>
<!DOCTYPE svg PUBLIC "-//W3C//DTD SVG 20010904//EN"
 "http://www.w3.org/TR/2001/REC-SVG-20010904/DTD/svg10.dtd">
<svg version="1.0" xmlns="http://www.w3.org/2000/svg"
 width="176.000000pt" height="155.000000pt" viewBox="0 0 176.000000 155.000000"
 preserveAspectRatio="xMidYMid meet">
<metadata>
Created by potrace 1.16, written by Peter Selinger 2001-2019
</metadata>
<g transform="translate(0.000000,155.000000) scale(0.100000,-0.100000)"
fill="#000000" stroke="none">
<path d="M280 1501 c-162 -52 -234 -131 -217 -238 11 -66 100 -132 179 -133
l36 0 6 -117 c22 -429 59 -551 194 -637 l40 -25 4 -131 c4 -165 -2 -160 160
-160 158 0 158 0 158 150 l0 110 75 0 75 0 0 -110 c0 -150 0 -150 160 -150
152 0 160 6 160 110 0 39 3 70 6 70 3 0 19 -9 34 -20 68 -49 142 -73 225 -74
99 -1 145 19 145 62 0 22 -14 41 -66 87 -65 57 -124 138 -220 303 -70 120
-131 174 -231 206 -155 48 -244 54 -466 30 -65 -7 -90 6 -101 54 -4 15 -11
126 -15 247 -7 195 -11 226 -29 262 -55 107 -176 148 -312 104z m180 -110 c42
-31 50 -58 50 -186 1 -143 13 -293 29 -353 7 -24 27 -60 45 -79 29 -32 40 -37
90 -41 31 -2 105 1 164 7 122 14 215 5 324 -31 89 -28 121 -61 218 -224 44
-73 96 -151 115 -174 19 -23 35 -46 35 -51 0 -12 -75 16 -113 43 -18 12 -58
45 -89 75 -62 58 -78 63 -108 33 -18 -18 -20 -33 -20 -130 l0 -110 -50 0 -50
0 0 110 c0 153 4 150 -185 150 -189 0 -185 3 -185 -150 l0 -110 -50 0 -50 0 0
110 c0 125 -2 130 -92 182 -101 58 -136 184 -145 518 -6 253 -5 250 -95 250
-99 0 -156 38 -129 88 5 10 37 33 69 50 101 54 170 61 222 23z"/>
</g>
</svg>
