<?xml version="1.0" standalone="no"?>
<!DOCTYPE svg PUBLIC "-//W3C//DTD SVG 20010904//EN"
 "http://www.w3.org/TR/2001/REC-SVG-20010904/DTD/svg10.dtd">
<svg version="1.0" xmlns="http://www.w3.org/2000/svg"
 width="300.000000pt" height="53.000000pt" viewBox="0 0 300.000000 53.000000"
 preserveAspectRatio="xMidYMid meet">
<metadata>
Created by potrace 1.10, written by Peter Selinger 2001-2011
</metadata>
<g transform="translate(0.000000,53.000000) scale(0.100000,-0.100000)"
fill="#000000" stroke="none">
<path d="M1544 421 c-49 -35 -85 -75 -99 -106 -20 -48 -93 -113 -150 -134 -46
-17 -79 -21 -181 -21 -114 0 -129 2 -174 25 -28 14 -78 49 -113 78 -110 94
-98 90 -264 85 -150 -5 -203 -16 -336 -72 -76 -33 -155 -125 -142 -166 13 -42
43 -34 103 28 48 50 69 63 132 85 114 39 156 46 270 47 l105 0 75 -65 c41 -36
102 -79 135 -95 59 -29 64 -30 206 -30 153 0 218 13 285 57 38 24 95 87 116
129 10 18 34 49 55 69 l36 35 119 0 119 0 72 -54 c40 -30 97 -77 127 -106 30
-28 78 -62 105 -76 45 -21 63 -24 179 -24 117 0 133 2 170 23 50 29 143 51
300 72 122 15 146 24 146 55 0 39 -21 42 -182 21 -156 -21 -267 -48 -303 -75
-15 -12 -48 -15 -131 -16 -128 0 -158 11 -241 90 -26 25 -68 61 -93 80 -25 19
-60 47 -78 62 -32 28 -34 28 -181 28 -147 0 -148 0 -187 -29z m329 -13 c28
-14 93 -66 182 -144 121 -105 131 -109 280 -109 85 0 105 3 135 21 63 39 165
60 385 80 96 8 13 -13 -100 -26 -122 -14 -230 -41 -278 -71 -27 -16 -51 -19
-152 -19 -106 0 -126 3 -170 24 -27 14 -75 47 -105 75 -30 28 -87 76 -126 106
l-71 55 -125 0 c-115 0 -128 -2 -154 -22 -41 -32 -72 -68 -90 -105 -28 -57
-104 -118 -177 -142 -60 -20 -84 -22 -210 -19 -134 3 -145 5 -192 31 -28 15
-82 55 -120 88 -38 33 -80 62 -93 66 -12 3 -78 3 -145 0 -103 -4 -136 -9 -211
-36 -104 -36 -117 -44 -173 -102 -26 -26 -43 -38 -43 -29 0 49 85 107 220 152
88 29 106 32 236 32 l140 1 38 -30 c20 -16 58 -47 84 -68 90 -73 132 -88 257
-94 97 -5 122 -3 184 16 60 18 79 30 121 74 27 29 63 74 80 100 17 27 50 60
77 77 46 29 50 30 171 30 74 0 132 -5 145 -12z"/>
</g>
</svg>
