<?xml version="1.0" standalone="no"?><!DOCTYPE svg PUBLIC "-//W3C//DTD SVG 1.1//EN" "http://www.w3.org/Graphics/SVG/1.1/DTD/svg11.dtd"><svg version="1.1" xmlns:xlink="http://www.w3.org/1999/xlink" xmlns:svgjs="http://svgjs.com/svgjs" height="100%" width="100%" viewBox="0 0 300 300" xmlns:svgjs="http://svgjs.com/svgjs" xmlns="http://www.w3.org/2000/svg" style="cursor:pointer;height:480px;width:480px;perspective-origin:240px 240px;transform-origin:240px 240px;user-select:none;"><g id="svg-container" transform="matrix(3.41,0,0,3.41,105.91445407867431,71.53071196556091)" style="cursor:pointer;height:auto;overflow-x:visible;overflow-y:visible;width:auto;perspective-origin:0px 0px;transform:matrix(3.41, 0, 0, 3.41, 105.914, 71.5307);transform-origin:0px 0px;user-select:none;"><g id="symbols" transform="matrix(1.0000000186114844,0,0,1.0000000186114844,-25.237121455708923,15.789143539574836)" style="cursor:pointer;height:auto;overflow-x:visible;overflow-y:visible;width:auto;perspective-origin:0px 0px;transform:matrix(1, 0, 0, 1, -25.2371, 15.7891);transform-origin:0px 0px;user-select:none;"><svg version="1.0" xmlns="http://www.w3.org/2000/svg" viewBox="0 0 1500 1500" data-external-asset-id="1102076" width="21.780251069091317" height="21.780251069091317" id="symbols_0" fill="#e51b23" x="0" y="0" style="cursor:pointer;height:auto;width:auto;perspective-origin:0px 0px;transform-origin:0px 0px;user-select:none;fill:rgb(229, 27, 35);"><path d="M1023.8 1.5C975.5 10.6 936.5 44 920.2 90c-5.6 15.8-6.7 23.5-6.7 45 .1 17.7.3 20.5 2.7 30 6.9 27.3 18.6 48 37.9 66.5 20.5 19.6 44.3 31.4 72.9 36.1 14 2.3 38.1 1.4 51.6-2 26.3-6.5 45.3-17.3 64-36 16.2-16.3 25.8-31.6 32.9-52.9 5.5-16.3 6.8-26.4 6.2-46.7-.4-14.4-1-19.3-3.1-27.9-12.4-49.2-49.5-86.2-98.9-98.7-8.8-2.3-12.8-2.7-29.2-3-13.7-.2-21.1.1-26.7 1.1zM811.5 204.6c-17.4 3.1-36.4 10.6-49.5 19.5-3.6 2.4-80.9 64.7-171.9 138.3-129.7 105.1-166.6 135.5-171.2 141-8 9.5-15.1 23.9-17.9 35.9-1.8 7.9-2.1 11.8-1.9 23l.4 13.6-6.7 1.5c-16 3.6-30 15.5-35.8 30.6-2.8 6.9-3.7 21.2-2.1 29.2 4 19.3 20.9 35.3 41.2 38.9 3.8.7 6.9 1.3 6.9 1.5 0 .7-19.2 45-19.8 45.6-.4.4-4.1-.1-8.2-1.2-11.6-3-33.3-6.7-46.4-8.1-17-1.7-55.2-.7-72.3 2C144.8 733 52.5 809.8 15.9 916 4.8 948 0 977.8 0 1014c0 51.2 10.1 93 33.3 138.5 13.8 27 32.2 52 54.7 74.5 44.2 44.2 98.9 72.8 160.6 83.9 19 3.4 34.7 4.4 60.7 3.8 25.2-.6 36-1.8 56.7-6.4 111-24.5 198.9-109.7 227.1-219.9 6.9-27.3 8.3-39.6 8.4-73.9 0-31.4-.6-38.5-5.7-63-11.7-57.2-41.4-110.6-85-153.1-14.5-14.1-36.7-31.7-50-39.6-3.7-2.2-6.8-4.3-6.8-4.7 0-.4 7.3-17.7 16.3-38.6l16.3-38 26.9-.2 27-.3 90.8 36.9c50 20.3 91.1 37.1 91.3 37.4.3.3-22.1 37.6-49.7 82.9-31.7 51.8-51.5 85.3-53.5 90.3-5.1 12.6-6.8 22.7-6.1 37.5.6 13.3 1.9 19.5 6.4 30 5.9 14 14.7 25.8 26.1 34.9 8.5 6.8 16.9 11.4 28.2 15.3 9.3 3.2 9.9 3.3 26.5 3.3 14.7 0 18-.3 24.8-2.3 20.1-5.8 37.9-18.7 49.4-35.7 2.2-3.3 23.7-38.3 47.7-77.7 24.1-39.5 44.1-71.6 44.4-71.4 18 10.6 54.9 33 55.5 33.6.5.4-1.2 5.9-3.7 12.1-8.1 20.5-14.5 44.4-18.3 68.9-2.6 16.4-2.5 65.2 0 82.5 14.8 99.3 74.3 182.5 162.7 227.4 29.1 14.8 59 24.3 93 29.6 14.3 2.3 56.9 3.2 72.6 1.5 49.2-5 95.7-21.5 136.1-48.3 18.4-12.1 31.5-22.9 47.3-38.7 42.5-42.5 70.6-94.7 82.4-153.1 7.2-35.5 7.6-80 1.1-114.9-21.8-115.8-108.8-208.5-222.5-237.1-25.6-6.5-38.7-8.1-69-8.5l-26.5-.4-21.7-107.8c-12-59.2-21.8-108-21.8-108.3 0-.4 4.3-2.4 9.5-4.4 13.9-5.3 18.1-8 26.5-16.4 13.1-13.1 18.4-26.2 18.4-45.1 0-9.8-.4-12.6-2.6-19-3.9-11.2-7.4-16.7-15.7-25.1-14.8-14.9-35.1-21.4-55.5-17.8-3.4.5-42.5 14.7-87.1 31.3l-81 30.3-.7-2.6c-.4-1.4-2.1-14-3.8-27.9l-3-25.3 3.6-9.6c12.5-33.5 10.8-69.3-4.6-98.1-14-26-42.9-50.1-71-59.2-15.5-5-38.7-6.4-55.5-3.4zM827.4 507c1.5 12.4 3.4 25.2 4.3 28.5 4 16.2 16.9 31.8 32.3 39.4 11 5.4 20.9 7.5 32 6.8 4.7-.3 11-1.3 14-2.2 3-1 38.1-13.9 77.8-28.7 39.8-14.9 72.7-26.6 73.1-26.2.7.8 41.1 200.5 41.1 203 0 .5-5.5 3.2-12.2 5.8-21.2 8.3-43.2 19.9-61.3 32.4-19.4 13.3-43.7 35.2-58.3 52.5-4.2 5-7.2 7.7-8.2 7.4-.8-.2-13.7-7.8-28.7-16.9l-27.1-16.4 11.9-19.5c19.2-31.2 22.6-39.9 23.6-60.4 1.5-31.5-13.1-60.5-39.3-77.9-8.1-5.3-9.9-6.1-105.1-44.7-38.6-15.6-69.9-28.6-69.7-28.9 3.9-3.9 96.1-77.6 96.5-77.1.3.3 1.8 10.7 3.3 23.1zM319 790c12 1.3 31.9 4.9 32.5 6.1.3.4-13.3 33.2-30.1 72.7l-30.7 71.9-7.1 1.7c-3.9.9-11.4 3.8-16.6 6.3-7.9 3.9-10.9 6.1-18 13.3-9.8 9.8-14 16.4-18.3 28.7-2.9 8.2-3.1 9.7-3.2 22.8 0 11.9.3 15.1 2.3 21.5 7.8 24.7 25.4 42.4 50.2 50.2 6.4 2 9.5 2.3 21.5 2.3 12.6-.1 14.8-.4 22-2.8 15.1-5.3 28.9-15.4 37-27.2l3.8-5.5H522l-.6 3.2c-6.1 33.7-22.5 69.5-45.3 98.8-14 18.1-38.2 39.5-58.6 52-10.9 6.7-33.9 17.4-45.8 21.3-24.5 8.2-44.1 11.2-71.7 11.1-23.2 0-34.4-1.4-55.9-7-39.4-10.2-71.6-28.9-101.7-58.9-29.7-29.6-48.5-62.1-58.8-101.6-5.5-21.1-7-33.4-7-56.9 0-23.4 1.5-35.8 6.9-56.6 10.3-39.3 29.4-72.4 58.9-102 18.5-18.5 35.3-30.7 57.1-41.7 37.9-19.1 81-27.7 119.5-23.7zm900 .1c26.3 2.4 55.8 10.7 79.3 22.5 23.5 11.7 40.2 23.7 59.3 42.8 35.1 35.1 56.5 77.4 64.1 126.6 2.4 15.9 2.4 48.1 0 64-5.8 37.9-20.1 72.1-43 103-9.1 12.2-32.5 35.6-44.7 44.7-30.7 22.7-64.3 36.8-102.5 43-15.3 2.4-48.6 2.4-64.5 0-38.6-6-73.4-20.8-105.5-45-11.4-8.6-32.8-30.4-42.1-42.8-41.3-55.5-55.1-124.5-37.9-190.2 2.6-10.1 7.2-23.7 8.4-24.9.4-.4 30.8 17.4 67.6 39.6l67 40.4.8 6.8c1.1 10.3 3.4 18.1 8 27.4 3.3 6.9 5.9 10.3 13.2 17.6 10 10.1 17.8 15.1 30.3 19.2 6.7 2.3 9.4 2.6 21.7 2.6 12 .1 15.1-.2 21.5-2.2 42.1-13.2 63.6-57.4 47.9-98.3-6.6-17.1-21.8-33-38.9-40.3-2.5-1.1-4.6-2-4.7-2.1-.2-.1-7.2-34.8-15.7-77.1-11.2-55.8-15.1-77.1-14.3-77.6 1.7-1.1 11.3-1 24.7.3zm-88 80.3c7.2 35.7 13 64.9 12.8 65.1-.6.5-112.3-67.4-112.6-68.5-.5-1.4 18.4-20.2 28.3-27.9 9.6-7.6 22.6-16.4 31.9-21.6 7.2-4 25.8-12.6 26.3-12.2.1.2 6.1 29.5 13.3 65.1zM436 835c41.5 31.6 70.4 75.9 83.1 127.5 1.6 6.6 2.9 12.3 2.9 12.7 0 .5-35.5.8-78.9.8h-78.9l-1.6-2.4c-1.5-2.4-.6-4.6 28.5-72.8 16.5-38.7 30.5-71.4 31-72.7.9-2.3 1-2.3 3.7-.5 1.5.9 6.1 4.3 10.2 7.4z" id="SvgjsPath1001" style="cursor:pointer;height:auto;overflow-x:visible;overflow-y:visible;width:auto;perspective-origin:0px 0px;transform-origin:0px 0px;user-select:none;fill:rgb(229, 27, 35);d:path(&quot;M 1023.8 1.5 C 975.5 10.6 936.5 44 920.2 90 C 914.6 105.8 913.5 113.5 913.5 135 C 913.6 152.7 913.8 155.5 916.2 165 C 923.1 192.3 934.8 213 954.1 231.5 C 974.6 251.1 998.4 262.9 1027 267.6 C 1041 269.9 1065.1 269 1078.6 265.6 C 1104.9 259.1 1123.9 248.3 1142.6 229.6 C 1158.8 213.3 1168.4 198 1175.5 176.7 C 1181 160.4 1182.3 150.3 1181.7 130 C 1181.3 115.6 1180.7 110.7 1178.6 102.1 C 1166.2 52.9 1129.1 15.9 1079.7 3.40002 C 1070.9 1.10002 1066.9 0.700017 1050.5 0.400017 C 1036.8 0.200017 1029.4 0.500017 1023.8 1.50002 Z M 811.5 204.6 C 794.1 207.7 775.1 215.2 762 224.1 C 758.4 226.5 681.1 288.8 590.1 362.4 C 460.4 467.5 423.5 497.9 418.9 503.4 C 410.9 512.9 403.8 527.3 401 539.3 C 399.2 547.2 398.9 551.1 399.1 562.3 L 399.5 575.9 L 392.8 577.4 C 376.8 581 362.8 592.9 357 608 C 354.2 614.9 353.3 629.2 354.9 637.2 C 358.9 656.5 375.8 672.5 396.1 676.1 C 399.9 676.8 403 677.4 403 677.6 C 403 678.3 383.8 722.6 383.2 723.2 C 382.8 723.6 379.1 723.1 375 722 C 363.4 719 341.7 715.3 328.6 713.9 C 311.6 712.2 273.4 713.2 256.3 715.9 C 144.8 733 52.5 809.8 15.9 916 C 4.8 948 0 977.8 0 1014 C 0 1065.2 10.1 1107 33.3 1152.5 C 47.1 1179.5 65.5 1204.5 88 1227 C 132.2 1271.2 186.9 1299.8 248.6 1310.9 C 267.6 1314.3 283.3 1315.3 309.3 1314.7 C 334.5 1314.1 345.3 1312.9 366 1308.3 C 477 1283.8 564.9 1198.6 593.1 1088.4 C 600 1061.1 601.4 1048.8 601.5 1014.5 C 601.5 983.1 600.9 976 595.8 951.5 C 584.1 894.3 554.4 840.9 510.8 798.4 C 496.3 784.3 474.1 766.7 460.8 758.8 C 457.1 756.6 454 754.5 454 754.1 C 454 753.7 461.3 736.4 470.3 715.5 L 486.6 677.5 L 513.5 677.3 L 540.5 677 L 631.3 713.9 C 681.3 734.2 722.4 751 722.6 751.3 C 722.9 751.6 700.5 788.9 672.9 834.2 C 641.2 886 621.4 919.5 619.4 924.5 C 614.3 937.1 612.6 947.2 613.3 962 C 613.9 975.3 615.2 981.5 619.7 992 C 625.6 1006 634.4 1017.8 645.8 1026.9 C 654.3 1033.7 662.7 1038.3 674 1042.2 C 683.3 1045.4 683.9 1045.5 700.5 1045.5 C 715.2 1045.5 718.5 1045.2 725.3 1043.2 C 745.4 1037.4 763.2 1024.5 774.7 1007.5 C 776.9 1004.2 798.4 969.2 822.4 929.8 C 846.5 890.3 866.5 858.2 866.8 858.4 C 884.8 869 921.7 891.4 922.3 892 C 922.8 892.4 921.1 897.9 918.6 904.1 C 910.5 924.6 904.1 948.5 900.3 973 C 897.7 989.4 897.8 1038.2 900.3 1055.5 C 915.1 1154.8 974.6 1238 1063 1282.9 C 1092.1 1297.7 1122 1307.2 1156 1312.5 C 1170.3 1314.8 1212.9 1315.7 1228.6 1314 C 1277.8 1309 1324.3 1292.5 1364.7 1265.7 C 1383.1 1253.6 1396.2 1242.8 1412 1227 C 1454.5 1184.5 1482.6 1132.3 1494.4 1073.9 C 1501.6 1038.4 1502 993.9 1495.5 959 C 1473.7 843.2 1386.7 750.5 1273 721.9 C 1247.4 715.4 1234.3 713.8 1204 713.4 L 1177.5 713 L 1155.8 605.2 C 1143.8 546 1134 497.2 1134 496.9 C 1134 496.5 1138.3 494.5 1143.5 492.5 C 1157.4 487.2 1161.6 484.5 1170 476.1 C 1183.1 463 1188.4 449.9 1188.4 431 C 1188.4 421.2 1188 418.4 1185.8 412 C 1181.9 400.8 1178.4 395.3 1170.1 386.9 C 1155.3 372 1135 365.5 1114.6 369.1 C 1111.2 369.6 1072.1 383.8 1027.5 400.4 L 946.5 430.7 L 945.8 428.1 C 945.4 426.7 943.7 414.1 942 400.2 L 939 374.9 L 942.6 365.3 C 955.1 331.8 953.4 296 938 267.2 C 924 241.2 895.1 217.1 867 208 C 851.5 203 828.3 201.6 811.5 204.6 Z M 827.4 507 C 828.9 519.4 830.8 532.2 831.7 535.5 C 835.7 551.7 848.6 567.3 864 574.9 C 875 580.3 884.9 582.4 896 581.7 C 900.7 581.4 907 580.4 910 579.5 C 913 578.5 948.1 565.6 987.8 550.8 C 1027.6 535.9 1060.5 524.2 1060.9 524.6 C 1061.6 525.4 1102 725.1 1102 727.6 C 1102 728.1 1096.5 730.8 1089.8 733.4 C 1068.6 741.7 1046.6 753.3 1028.5 765.8 C 1009.1 779.1 984.8 801 970.2 818.3 C 966 823.3 963 826 962 825.7 C 961.2 825.5 948.3 817.9 933.3 808.8 L 906.2 792.4 L 918.1 772.9 C 937.3 741.7 940.7 733 941.7 712.5 C 943.2 681 928.6 652 902.4 634.6 C 894.3 629.3 892.5 628.5 797.3 589.9 C 758.7 574.3 727.4 561.3 727.6 561 C 731.5 557.1 823.7 483.4 824.1 483.9 C 824.4 484.2 825.9 494.6 827.4 507 Z M 319 790 C 331 791.3 350.9 794.9 351.5 796.1 C 351.8 796.5 338.2 829.3 321.4 868.8 L 290.7 940.7 L 283.6 942.4 C 279.7 943.3 272.2 946.2 267 948.7 C 259.1 952.6 256.1 954.8 249 962 C 239.2 971.8 235 978.4 230.7 990.7 C 227.8 998.9 227.6 1000.4 227.5 1013.5 C 227.5 1025.4 227.8 1028.6 229.8 1035 C 237.6 1059.7 255.2 1077.4 280 1085.2 C 286.4 1087.2 289.5 1087.5 301.5 1087.5 C 314.1 1087.4 316.3 1087.1 323.5 1084.7 C 338.6 1079.4 352.4 1069.3 360.5 1057.5 L 364.3 1052 H 522 L 521.4 1055.2 C 515.3 1088.9 498.9 1124.7 476.1 1154 C 462.1 1172.1 437.9 1193.5 417.5 1206 C 406.6 1212.7 383.6 1223.4 371.7 1227.3 C 347.2 1235.5 327.6 1238.5 300 1238.4 C 276.8 1238.4 265.6 1237 244.1 1231.4 C 204.7 1221.2 172.5 1202.5 142.4 1172.5 C 112.7 1142.9 93.9001 1110.4 83.6001 1070.9 C 78.1001 1049.8 76.6001 1037.5 76.6001 1014 C 76.6001 990.6 78.1001 978.2 83.5001 957.4 C 93.8001 918.1 112.9 885 142.4 855.4 C 160.9 836.9 177.7 824.7 199.5 813.7 C 237.4 794.6 280.5 786 319 790 Z M 1219 790.1 C 1245.3 792.5 1274.8 800.8 1298.3 812.6 C 1321.8 824.3 1338.5 836.3 1357.6 855.4 C 1392.7 890.5 1414.1 932.8 1421.7 982 C 1424.1 997.9 1424.1 1030.1 1421.7 1046 C 1415.9 1083.9 1401.6 1118.1 1378.7 1149 C 1369.6 1161.2 1346.2 1184.6 1334 1193.7 C 1303.3 1216.4 1269.7 1230.5 1231.5 1236.7 C 1216.2 1239.1 1182.9 1239.1 1167 1236.7 C 1128.4 1230.7 1093.6 1215.9 1061.5 1191.7 C 1050.1 1183.1 1028.7 1161.3 1019.4 1148.9 C 978.1 1093.4 964.3 1024.4 981.5 958.7 C 984.1 948.6 988.7 935 989.9 933.8 C 990.3 933.4 1020.7 951.2 1057.5 973.4 L 1124.5 1013.8 L 1125.3 1020.6 C 1126.4 1030.9 1128.7 1038.7 1133.3 1048 C 1136.6 1054.9 1139.2 1058.3 1146.5 1065.6 C 1156.5 1075.7 1164.3 1080.7 1176.8 1084.8 C 1183.5 1087.1 1186.2 1087.4 1198.5 1087.4 C 1210.5 1087.5 1213.6 1087.2 1220 1085.2 C 1262.1 1072 1283.6 1027.8 1267.9 986.9 C 1261.3 969.8 1246.1 953.9 1229 946.6 C 1226.5 945.5 1224.4 944.6 1224.3 944.5 C 1224.1 944.4 1217.1 909.7 1208.6 867.4 C 1197.4 811.6 1193.5 790.3 1194.3 789.8 C 1196 788.7 1205.6 788.8 1219 790.1 Z M 1131 870.4 C 1138.2 906.1 1144 935.3 1143.8 935.5 C 1143.2 936 1031.5 868.1 1031.2 867 C 1030.7 865.6 1049.6 846.8 1059.5 839.1 C 1069.1 831.5 1082.1 822.7 1091.4 817.5 C 1098.6 813.5 1117.2 804.9 1117.7 805.3 C 1117.8 805.5 1123.8 834.8 1131 870.4 Z M 436 835 C 477.5 866.6 506.4 910.9 519.1 962.5 C 520.7 969.1 522 974.8 522 975.2 C 522 975.7 486.5 976 443.1 976 H 364.2 L 362.6 973.6 C 361.1 971.2 362 969 391.1 900.8 C 407.6 862.1 421.6 829.4 422.1 828.1 C 423 825.8 423.1 825.8 425.8 827.6 C 427.3 828.5 431.9 831.9 436 835 Z&quot;);"/></svg></g><g id="headline" transform="matrix(1,0,0,1,0,1.7763568394002505e-15)" style="cursor:pointer;height:auto;overflow-x:visible;overflow-y:visible;width:auto;perspective-origin:0px 0px;transform:matrix(1, 0, 0, 1, 0, 1.77636e-15);transform-origin:0px 0px;user-select:none;"><text data-font-id="1250" font-family="phenomena_regular" id="headline_0" transform="matrix(1,0,0,1,0,23.035833333333333)" svgjs:data="{&quot;leading&quot;:&quot;1.3&quot;}" style="cursor:pointer;display:block;font-family:phenomena_regular;height:auto;overflow-x:visible;overflow-y:visible;white-space:nowrap;width:auto;perspective-origin:7.75px 0px;transform:matrix(1, 0, 0, 1, 0, 23.0358);transform-origin:0px 0px;user-select:none;"><tspan id="headline_0_word_0" fill="#000000" svgjs:data="{&quot;leading&quot;:&quot;1.3&quot;}" style="cursor:pointer;font-family:phenomena_regular;height:auto;overflow-x:visible;overflow-y:visible;white-space:nowrap;width:auto;perspective-origin:0px 0px;transform-origin:0px 0px;user-select:none;">Ben</tspan></text><text data-font-id="1250" font-family="phenomena_regular" id="headline_1" transform="matrix(1,0,0,1,0,35.72158507664999)" svgjs:data="{&quot;leading&quot;:&quot;1.3&quot;}" style="cursor:pointer;display:block;font-family:phenomena_regular;height:auto;overflow-x:visible;overflow-y:visible;white-space:nowrap;width:auto;perspective-origin:20.4px 0px;transform:matrix(1, 0, 0, 1, 0, 35.7216);transform-origin:0px 0px;user-select:none;"><tspan id="headline_1_word_0" fill="#000000" svgjs:data="{&quot;leading&quot;:&quot;1.3&quot;}" style="cursor:pointer;font-family:phenomena_regular;height:auto;overflow-x:visible;overflow-y:visible;white-space:nowrap;width:auto;perspective-origin:0px 0px;transform-origin:0px 0px;user-select:none;">Carpenter</tspan></text></g></g><defs style="cursor:pointer;height:auto;overflow-x:visible;overflow-y:visible;width:auto;perspective-origin:0px 0px;transform-origin:0px 0px;user-select:none;"><style style="cursor:pointer;height:auto;overflow-x:visible;overflow-y:visible;width:auto;perspective-origin:50% 50%;transform-origin:0px 0px;user-select:none;">@font-face {font-family: phenomena_regular;src: url(https://pismo.tailorbrands.com/v2/px_fonts/phenomena_regular)}</style></defs></svg>