<svg height='100px' width='100px'  fill="#000000" xmlns="http://www.w3.org/2000/svg" viewBox="0 0 100 100" x="0px" y="0px"><rect x="52.64453" y="42.29492" width="0.70898" height="2.49707"></rect><rect x="49.64844" y="42.29492" width="0.70898" height="2.49707"></rect><rect x="46.6377" y="42.29492" width="0.70898" height="2.49707"></rect><rect x="52.64453" y="47.28906" width="0.70898" height="2.49707"></rect><rect x="49.64844" y="47.28906" width="0.70898" height="2.49707"></rect><rect x="46.6377" y="47.28906" width="0.70898" height="2.49707"></rect><rect x="52.64453" y="55.22754" width="0.70898" height="2.49658"></rect><rect x="49.64844" y="55.22754" width="0.70898" height="2.49658"></rect><rect x="55.68652" y="55.22754" width="0.70898" height="2.49658"></rect><rect x="46.6377" y="55.22754" width="0.70898" height="2.49658"></rect><rect x="43.62695" y="55.22754" width="0.70898" height="2.49658"></rect><rect x="52.64453" y="65.24512" width="0.70898" height="2.49707"></rect><rect x="49.64844" y="65.24512" width="0.70898" height="2.49707"></rect><rect x="55.68652" y="65.24512" width="0.70898" height="2.49707"></rect><rect x="39.3252" y="65.24512" width="0.70898" height="2.49707"></rect><rect x="46.6377" y="65.24512" width="0.70898" height="2.49707"></rect><rect x="43.62695" y="65.24512" width="0.70898" height="2.49707"></rect><rect x="39.3252" y="70.25928" width="0.70898" height="2.49707"></rect><rect x="59.91602" y="65.24512" width="0.70898" height="2.49707"></rect><rect x="52.64453" y="87.67773" width="0.70898" height="2.49707"></rect><rect x="49.64844" y="87.67773" width="0.70898" height="2.49707"></rect><rect x="55.68652" y="87.67773" width="0.70898" height="2.49707"></rect><rect x="39.3252" y="87.67773" width="0.70898" height="2.49707"></rect><rect x="46.6377" y="87.67773" width="0.70898" height="2.49707"></rect><rect x="43.62695" y="87.67773" width="0.70898" height="2.49707"></rect><rect x="33.70313" y="87.67773" width="0.70898" height="2.49707"></rect><rect x="65.48828" y="87.67773" width="0.70898" height="2.49707"></rect><rect x="59.91602" y="87.67773" width="0.70898" height="2.49707"></rect><rect x="52.64453" y="80.18164" width="0.70898" height="2.49658"></rect><rect x="49.64844" y="80.18164" width="0.70898" height="2.49658"></rect><rect x="55.68652" y="80.18164" width="0.70898" height="2.49658"></rect><rect x="39.3252" y="80.18164" width="0.70898" height="2.49658"></rect><rect x="46.6377" y="80.18164" width="0.70898" height="2.49658"></rect><rect x="43.62695" y="80.18164" width="0.70898" height="2.49658"></rect><rect x="59.91602" y="80.18164" width="0.70898" height="2.49658"></rect><rect x="59.91602" y="70.25928" width="0.70898" height="2.49707"></rect><rect x="59.91602" y="75.16748" width="0.70898" height="2.49658"></rect><rect x="39.3252" y="75.16748" width="0.70898" height="2.49658"></rect><path d="M45.8418,77.71631H57.90039V71.76465A1.85691,1.85691,0,0,0,54.52,70.7a1.84847,1.84847,0,0,0-3.01874-.0274,1.84625,1.84625,0,0,0-3.00342.00885,1.84776,1.84776,0,0,0-3.011-.00037,1.85606,1.85606,0,0,0-3.36572,1.08356v5.95166h3.7207Zm9.04785-5.95166a1.15088,1.15088,0,1,1,2.30176,0v5.24268H54.88965ZM52.999,70.61377a1.15238,1.15238,0,0,1,1.15137,1.15088v5.24268H51.86328V71.76465c0-.01654-.00446-.03186-.00488-.04828A1.14621,1.14621,0,0,1,52.999,70.61377Zm-4.14648,1.15088a1.14642,1.14642,0,0,1,2.292-.04828c-.00043.01642-.00488.03174-.00488.04828v5.24268H48.85254Zm-1.86035-1.15088a1.15238,1.15238,0,0,1,1.15137,1.15088v5.24268H45.8418V71.76465l-.00031-.00323A1.152,1.152,0,0,1,46.99219,70.61377Zm-4.16211,1.15088a1.151,1.151,0,0,1,2.30206-.00323l-.00031.00323v5.24268H42.83008Z"></path><path d="M82.90015,38.87451h.70435a2.22266,2.22266,0,1,0-.45215-4.3999,2.85171,2.85171,0,0,0-3.98682-.986A37.67717,37.67717,0,0,0,54.66016,20.08948V16.5293h-.00439l-2.42822-3.21106V8.95264H52.219L50.02441,4.17969,47.81976,8.95264h.00153v4.36572L45.39508,16.5293h-.00543V20.0827A37.805,37.805,0,0,0,12.95831,49.59009a4.79868,4.79868,0,0,0-3.94366,2.54175,3.66628,3.66628,0,1,0-.94141,7.21H12.1203A37.91968,37.91968,0,1,0,82.90015,38.87451Zm-2.22144-5.11475a2.15632,2.15632,0,0,1,1.9668,1.2793l.13574.3042.3125-.11621a1.45478,1.45478,0,0,1,.51074-.08887,1.51367,1.51367,0,1,1,0,3.02734H77.626a1.2981,1.2981,0,1,1,.48145-2.50244l.38184.15234.09473-.3999A2.14577,2.14577,0,0,1,80.67871,33.75977Zm-30.6543-27.75,1.425,2.94287H48.58923ZM48.53027,9.66162h2.98828v3.41406H48.53027Zm-.17157,4.124h3.33142l2.09814,2.74365H46.26245Zm5.59247,3.45264v7.11621h-1.8457V17.23828Zm-2.55469,0v7.11621H48.40723V17.23828Zm-5.29785,0h1.59961v7.11621H46.09863Zm0,7.8252h7.85254v2.74365H46.09863Zm8.56152,3.45264h1.80273v1.8457H43.543v-1.8457H54.66016ZM59.916,47.50049v4.5708H57.17188v-4.5708Zm-2.64532-.709,1.28595-3.06006,1.28595,3.06006Zm2.65021,5.98877v7.07178H40.03418V52.78027H59.9209ZM36.65137,62.36963V60.561H63.35449v1.80859ZM63.15527,73.89545a2.23757,2.23757,0,0,1,.416.10455l.31055.1123.13477-.30176a3.166,3.166,0,0,1,5.97363.55713l.0957.40186.38281-.15527a1.92233,1.92233,0,0,1,.72949-.14258,1.96582,1.96582,0,0,1,0,3.93164h-8.043Zm-20.37793-26.395v4.5708H40.03418v-4.5708Zm-2.68469-.709L41.418,43.73145l1.28595,3.06006Zm16.36816-6.63867V52.06689H43.543V40.15283ZM43.543,39.42334V31.0708h1.84668v8.35254Zm2.55566,0V31.0708h1.84473v8.35254Zm2.55371,0V31.0708h2.74414v8.35254Zm3.45313,0V31.0708h1.8457v8.35254Zm2.55469,0V31.0708h1.80273v8.35254ZM8.07324,58.63281A2.95679,2.95679,0,1,1,9.08008,52.894l.30957.11182.13477-.30078a4.08725,4.08725,0,0,1,7.71191.71826l.09473.40186.38281-.1543a2.55123,2.55123,0,0,1,.95605-.18555,2.57373,2.57373,0,1,1,0,5.14746Zm28.64941,33.886a36.95827,36.95827,0,0,1-5.35156-2.52588V87.67773h-.709v1.89661a37.00627,37.00627,0,0,1-5.48651-4.04993H36.72266Zm0-7.70337H24.40692A37.04413,37.04413,0,0,1,12.83069,59.3418h5.83923a3.28272,3.28272,0,1,0-.84766-6.45361,4.76026,4.76026,0,0,0-4.13965-3.285,37.09575,37.09575,0,0,1,31.707-28.80566v7.00964H43.543V25.644h-.709V45.27l-1.416-3.36865L39.32312,46.7915h.00208V59.85205H35.94238v3.22656h.78027ZM62.44629,92.79a37.03522,37.03522,0,0,1-12.44336,2.147,37.533,37.533,0,0,1-12.57129-2.1474v-7.2652H62.44629Zm0-7.97461H37.43164V63.11328H62.44629Zm6.792,4.75311V87.67773h-.709v2.299a37.06214,37.06214,0,0,1-5.374,2.55219V85.52441H74.70392A37.41687,37.41687,0,0,1,69.23828,89.56854Zm6.18164-4.70007v-.053H63.15527V79.1123h8.043a2.6748,2.6748,0,0,0,0-5.34961,2.64162,2.64162,0,0,0-.624.07422,3.87554,3.87554,0,0,0-7.06641-.59619,2.93769,2.93769,0,0,0-.35254-.04236V63.07861h.9082V59.85205H60.62988V52.07129H60.625V46.8219l-.01276-.0304-2.0556-4.89014L57.1698,45.277V40.15283h.00208V25.644h-.709v2.16309H54.66016v-7.0025A36.97289,36.97289,0,0,1,78.61548,33.93591a2.84192,2.84192,0,0,0-.61255.96057,1.98822,1.98822,0,0,0-.377-.03613,2.00708,2.00708,0,1,0,0,4.01416h4.46478a37.1633,37.1633,0,0,1-6.67084,45.994Z"></path></svg>